<?xml version="1.0" encoding="UTF-8"?>
<svg xmlns="http://www.w3.org/2000/svg" viewBox="0 0 512 512" width="512" height="512">
  <defs>
    <radialGradient id="bg" cx="50%" cy="38%" r="72%">
      <stop offset="0%" stop-color="#1e4d73"/>
      <stop offset="55%" stop-color="#123456"/>
      <stop offset="100%" stop-color="#081420"/>
    </radialGradient>
    <radialGradient id="glow" cx="50%" cy="55%" r="45%">
      <stop offset="0%" stop-color="#67e8f9" stop-opacity="0.28"/>
      <stop offset="100%" stop-color="#67e8f9" stop-opacity="0"/>
    </radialGradient>
  </defs>
  <rect width="512" height="512" fill="url(#bg)"/>
  <rect width="512" height="512" fill="url(#glow)"/>

  <circle cx="400.0" cy="56.0" r="3.2" fill="#6b8fb8" opacity="0.55"/> <circle cx="426.0" cy="63.0" r="3.2" fill="#6b8fb8" opacity="0.55"/> <circle cx="445.0" cy="82.0" r="3.2" fill="#6b8fb8" opacity="0.55"/> <circle cx="452.0" cy="108.0" r="3.2" fill="#6b8fb8" opacity="0.55"/> <circle cx="445.0" cy="134.0" r="3.2" fill="#6b8fb8" opacity="0.55"/> <circle cx="426.0" cy="153.0" r="3.2" fill="#6b8fb8" opacity="0.55"/> <circle cx="400.0" cy="160.0" r="3.2" fill="#6b8fb8" opacity="0.55"/> <circle cx="374.0" cy="153.0" r="3.2" fill="#6b8fb8" opacity="0.55"/> <circle cx="355.0" cy="134.0" r="3.2" fill="#6b8fb8" opacity="0.55"/> <circle cx="348.0" cy="108.0" r="3.2" fill="#6b8fb8" opacity="0.55"/> <circle cx="355.0" cy="82.0" r="3.2" fill="#6b8fb8" opacity="0.55"/> <circle cx="374.0" cy="63.0" r="3.2" fill="#6b8fb8" opacity="0.55"/>
  <path d="M 186 248 A 70 70 0 0 1 326 248" fill="none" stroke="#2dd4ff" stroke-width="7" stroke-linecap="round" opacity="1.0"/> <path d="M 158 248 A 98 98 0 0 1 354 248" fill="none" stroke="#2dd4ff" stroke-width="6" stroke-linecap="round" opacity="0.75"/> <path d="M 130 248 A 126 126 0 0 1 382 248" fill="none" stroke="#2dd4ff" stroke-width="5" stroke-linecap="round" opacity="0.5"/>

  <g transform="translate(0, 8)">
    <path fill="#f8fafc" d="
      M 118 322 L 132 292 L 168 272 L 210 262 L 300 262 L 348 272
      L 382 292 L 396 322 L 396 338 L 118 338 Z"/>
    <path fill="#123456" d="
      M 178 272 L 210 262 L 300 262 L 332 272 L 318 298 L 192 298 Z"/>
    <path fill="#e2e8f0" d="M 378 300 L 392 308 L 378 316 Z"/>
    <circle cx="178" cy="338" r="26" fill="#0a1628"/>
    <circle cx="178" cy="338" r="14" fill="#1e293b"/>
    <circle cx="334" cy="338" r="26" fill="#0a1628"/>
    <circle cx="334" cy="338" r="14" fill="#1e293b"/>
    <circle cx="178" cy="338" r="28" fill="none" stroke="#f8fafc" stroke-width="6"/>
    <circle cx="334" cy="338" r="28" fill="none" stroke="#f8fafc" stroke-width="6"/>
  </g>
</svg>
